<?xml version="1.0" encoding="UTF-8" standalone="no"?>
<svg
   xmlns:dc="http://purl.org/dc/elements/1.1/"
   xmlns:cc="http://creativecommons.org/ns#"
   xmlns:rdf="http://www.w3.org/1999/02/22-rdf-syntax-ns#"
   xmlns:svg="http://www.w3.org/2000/svg"
   xmlns="http://www.w3.org/2000/svg"
   xmlns:sodipodi="http://sodipodi.sourceforge.net/DTD/sodipodi-0.dtd"
   xmlns:inkscape="http://www.inkscape.org/namespaces/inkscape"
   style="isolation:isolate"
   viewBox="0 0 80 28"
   width="80"
   height="28"
   version="1.1"
   id="svg1279"
   sodipodi:docname="date_iov1.svg"
   inkscape:version="1.0.1 (0767f8302a, 2020-10-17)">
  <metadata
     id="metadata1283">
    <rdf:RDF>
      <cc:Work
         rdf:about="">
        <dc:format>image/svg+xml</dc:format>
        <dc:type
           rdf:resource="http://purl.org/dc/dcmitype/StillImage" />
        <dc:title></dc:title>
      </cc:Work>
    </rdf:RDF>
  </metadata>
  <sodipodi:namedview
     pagecolor="#ffffff"
     bordercolor="#666666"
     borderopacity="1"
     objecttolerance="10"
     gridtolerance="10"
     guidetolerance="10"
     inkscape:pageopacity="0"
     inkscape:pageshadow="2"
     inkscape:window-width="1848"
     inkscape:window-height="1016"
     id="namedview1281"
     showgrid="false"
     inkscape:zoom="6.2672915"
     inkscape:cx="34.241953"
     inkscape:cy="-1.2864518"
     inkscape:window-x="72"
     inkscape:window-y="27"
     inkscape:window-maximized="1"
     inkscape:current-layer="svg1279" />
  <defs
     id="defs1265">
    <clipPath
       id="_clipPath_cdyxItlMrz1iI1VoC1l1PEY67go5xnFD">
      <rect
         width="784"
         height="320"
         id="rect1262"
         x="0"
         y="0" />
    </clipPath>
    <clipPath
       id="_clipPath_cdyxItlMrz1iI1VoC1l1PEY67go5xnFD-8">
      <rect
         width="784"
         height="320"
         id="rect1262-6"
         x="0"
         y="0" />
    </clipPath>
  </defs>
  <rect
     style="font-variation-settings:normal;opacity:1;vector-effect:none;fill:#a20e1d;fill-opacity:1;fill-rule:evenodd;stroke:none;stroke-width:0.851494;stroke-linecap:round;stroke-linejoin:bevel;stroke-miterlimit:4;stroke-dasharray:none;stroke-dashoffset:0;stroke-opacity:1;paint-order:stroke markers fill;stop-color:#000000;stop-opacity:1"
     id="rect1846"
     width="80"
     height="28"
     x="0"
     y="0" />
  <g
     aria-label="date-io"
     transform="matrix(1.0372794,0,0,0.96087113,-9.4064949,0)"
     id="text1970"
     style="font-size:16.4375px;line-height:1.25;font-family:Roboto;-inkscape-font-specification:'Roboto, Normal';letter-spacing:0px;fill:#ffffff;fill-opacity:1;stroke-width:1.23282">
    <path
       d="m 22.565275,16.247562 q 0,-2.00653 0.93103,-3.218475 0.931031,-1.219971 2.496125,-1.219971 1.380493,0 2.231262,0.963135 V 8.325779 h 1.950348 v 12.328125 h -1.765747 l -0.09631,-0.898926 q -0.874847,1.059448 -2.335602,1.059448 -1.524963,0 -2.472045,-1.227996 -0.939057,-1.227997 -0.939057,-3.338868 z m 1.950348,0.168549 q 0,1.32431 0.505646,2.07074 0.513672,0.738403 1.452728,0.738403 1.195892,0 1.749695,-1.067474 v -3.708069 q -0.53775,-1.043396 -1.733643,-1.043396 -0.947082,0 -1.460754,0.754455 -0.513672,0.74643 -0.513672,2.255341 z"
       style="fill:#ffffff;fill-opacity:1;stroke-width:1.23282"
       id="path1972" />
    <path
       d="m 37.397551,20.653904 q -0.128418,-0.24881 -0.224732,-0.810638 -0.93103,0.97116 -2.279419,0.97116 -1.308258,0 -2.134949,-0.746429 -0.82669,-0.746429 -0.82669,-1.846008 0,-1.38852 1.027344,-2.126923 1.035369,-0.746429 2.953613,-0.746429 h 1.195892 v -0.569855 q 0,-0.674194 -0.377228,-1.075501 -0.377227,-0.409332 -1.147735,-0.409332 -0.666168,0 -1.091553,0.337097 -0.425384,0.329071 -0.425384,0.842743 h -1.950348 q 0,-0.714325 0.473541,-1.332336 0.473541,-0.626038 1.28418,-0.979187 0.818664,-0.35315 1.821929,-0.35315 1.524964,0 2.431916,0.770508 0.906952,0.762482 0.93103,2.151001 v 3.916748 q 0,1.171814 0.329071,1.870087 v 0.136444 z m -2.142975,-1.404572 q 0.577881,0 1.083526,-0.280914 0.513672,-0.280914 0.770508,-0.754455 v -1.63733 h -1.051422 q -1.083527,0 -1.629303,0.377228 -0.545776,0.377228 -0.545776,1.067475 0,0.561828 0.369201,0.898925 0.377228,0.329071 1.003266,0.329071 z"
       style="fill:#ffffff;fill-opacity:1;stroke-width:1.23282"
       id="path1974" />
    <path
       d="m 43.545561,9.8587685 v 2.1108705 h 1.532989 v 1.444702 h -1.532989 v 4.847778 q 0,0.49762 0.192627,0.722351 0.200653,0.216706 0.706299,0.216706 0.337097,0 0.68222,-0.08026 v 1.508912 q -0.666168,0.1846 -1.28418,0.1846 -2.247314,0 -2.247314,-2.480072 v -4.920013 h -1.42865 v -1.444702 h 1.42865 V 9.8587685 Z"
       style="fill:#ffffff;fill-opacity:1;stroke-width:1.23282"
       id="path1976" />
    <path
       d="m 50.383818,20.814426 q -1.854035,0 -3.009796,-1.163787 -1.147736,-1.171814 -1.147736,-3.114136 v -0.240784 q 0,-1.300232 0.49762,-2.319549 0.505645,-1.027344 1.412597,-1.597199 0.906952,-0.569855 2.022583,-0.569855 1.773773,0 2.736908,1.131684 0.971161,1.131683 0.971161,3.202423 v 0.78656 h -5.674469 q 0.08829,1.0755 0.714325,1.701538 0.634064,0.626038 1.589172,0.626038 1.340363,0 2.183106,-1.083527 l 1.051422,1.003265 q -0.521698,0.778534 -1.396545,1.211945 -0.866822,0.425384 -1.950348,0.425384 z M 50.15106,13.37421 q -0.802612,0 -1.300232,0.561829 -0.489593,0.561829 -0.626037,1.565094 h 3.716095 v -0.14447 Q 51.876677,14.377476 51.419188,13.879856 50.961699,13.37421 50.15106,13.37421 Z"
       style="fill:#ffffff;fill-opacity:1;stroke-width:1.23282"
       id="path1978" />
    <path
       d="m 59.172422,16.472294 h -4.213714 v -1.57312 h 4.213714 z"
       style="fill:#ffffff;fill-opacity:1;stroke-width:1.23282"
       id="path1980" />
    <path
       d="m 62.856413,20.653904 h -1.950348 v -8.684265 h 1.950348 z M 60.785673,9.7142982 q 0,-0.4494628 0.280914,-0.7464294 0.288941,-0.2969665 0.818665,-0.2969665 0.529724,0 0.818665,0.2969665 0.28894,0.2969666 0.28894,0.7464294 0,0.4414368 -0.28894,0.7384038 -0.288941,0.28894 -0.818665,0.28894 -0.529724,0 -0.818665,-0.28894 -0.280914,-0.296967 -0.280914,-0.7384038 z"
       style="fill:#ffffff;fill-opacity:1;stroke-width:1.23282"
       id="path1982" />
    <path
       d="m 64.62216,16.23151 q 0,-1.276153 0.505646,-2.295471 0.505645,-1.027344 1.420623,-1.57312 0.914979,-0.553803 2.102845,-0.553803 1.757721,0 2.849273,1.131684 1.099579,1.131683 1.187867,3.00177 l 0.008,0.457489 q 0,1.284179 -0.49762,2.295471 -0.489593,1.011291 -1.412598,1.565094 -0.914978,0.553802 -2.118896,0.553802 -1.837982,0 -2.945587,-1.21997 -1.099579,-1.227997 -1.099579,-3.266632 z m 1.950348,0.168549 q 0,1.340362 0.553802,2.102844 0.553803,0.754456 1.541016,0.754456 0.987213,0 1.532989,-0.770508 0.553803,-0.770508 0.553803,-2.255341 0,-1.316284 -0.569855,-2.086792 -0.561828,-0.770508 -1.532989,-0.770508 -0.955109,0 -1.516938,0.762482 -0.561828,0.754456 -0.561828,2.263367 z"
       style="fill:#ffffff;fill-opacity:1;stroke-width:1.23282"
       id="path1984" />
  </g>
</svg>
