<?xml version="1.0" encoding="UTF-8" standalone="no"?>
<svg
   xmlns:dc="http://purl.org/dc/elements/1.1/"
   xmlns:cc="http://creativecommons.org/ns#"
   xmlns:rdf="http://www.w3.org/1999/02/22-rdf-syntax-ns#"
   xmlns:svg="http://www.w3.org/2000/svg"
   xmlns="http://www.w3.org/2000/svg"
   xmlns:sodipodi="http://sodipodi.sourceforge.net/DTD/sodipodi-0.dtd"
   xmlns:inkscape="http://www.inkscape.org/namespaces/inkscape"
   style="isolation:isolate"
   viewBox="0 0 99.551003 28"
   width="99.551003"
   height="28"
   version="1.1"
   id="svg1279"
   sodipodi:docname="date_iov1.svg"
   inkscape:version="1.0.1 (0767f8302a, 2020-10-17)">
  <metadata
     id="metadata1283">
    <rdf:RDF>
      <cc:Work
         rdf:about="">
        <dc:format>image/svg+xml</dc:format>
        <dc:type
           rdf:resource="http://purl.org/dc/dcmitype/StillImage" />
        <dc:title></dc:title>
      </cc:Work>
    </rdf:RDF>
  </metadata>
  <sodipodi:namedview
     pagecolor="#ffffff"
     bordercolor="#666666"
     borderopacity="1"
     objecttolerance="10"
     gridtolerance="10"
     guidetolerance="10"
     inkscape:pageopacity="0"
     inkscape:pageshadow="2"
     inkscape:window-width="1848"
     inkscape:window-height="1016"
     id="namedview1281"
     showgrid="false"
     inkscape:zoom="5.5290903"
     inkscape:cx="33.695442"
     inkscape:cy="-14.92313"
     inkscape:window-x="72"
     inkscape:window-y="27"
     inkscape:window-maximized="1"
     inkscape:current-layer="svg1279"
     inkscape:document-rotation="0" />
  <defs
     id="defs1265">
    <clipPath
       id="_clipPath_cdyxItlMrz1iI1VoC1l1PEY67go5xnFD">
      <rect
         width="784"
         height="320"
         id="rect1262"
         x="0"
         y="0" />
    </clipPath>
    <clipPath
       id="_clipPath_cdyxItlMrz1iI1VoC1l1PEY67go5xnFD-8">
      <rect
         width="784"
         height="320"
         id="rect1262-6"
         x="0"
         y="0" />
    </clipPath>
  </defs>
  <rect
     style="font-variation-settings:normal;opacity:1;vector-effect:none;fill:#a20e1d;fill-opacity:1;fill-rule:evenodd;stroke:none;stroke-width:0.949859;stroke-linecap:round;stroke-linejoin:bevel;stroke-miterlimit:4;stroke-dasharray:none;stroke-dashoffset:0;stroke-opacity:1;paint-order:stroke markers fill;stop-color:#000000;stop-opacity:1"
     id="rect1846"
     width="99.551003"
     height="28"
     x="0"
     y="0" />
  <g
     aria-label="date-io"
     transform="scale(0.98860171,1.0115297)"
     id="text1484"
     style="font-size:13.487px;line-height:1.25;font-family:Roboto;-inkscape-font-specification:'Roboto, Normal';letter-spacing:0px;fill:#ffffff;stroke-width:1.01153">
    <path
       d="m 40.550206,19.908257 c 1.051993,0 1.780295,-0.420797 2.168723,-1.1491 l -0.04855,1.003439 h 2.184907 V 8.0773873 h -2.184907 v 5.7616817 c -0.436982,-0.679749 -1.051993,-1.11673 -2.152539,-1.11673 -1.667003,0 -3.091239,1.456605 -3.091239,3.576774 0,2.12017 1.44042,3.609144 3.123608,3.609144 z m 0.631196,-1.909771 c -0.922517,0 -1.505159,-0.615011 -1.505159,-1.699373 0,-1.019623 0.582642,-1.650819 1.505159,-1.650819 0.938701,0 1.553712,0.631196 1.553712,1.650819 0,1.084362 -0.615011,1.699373 -1.553712,1.699373 z"
       style="font-style:normal;font-variant:normal;font-weight:bold;font-stretch:normal;font-size:16.1845px;font-family:'Neutra Text';-inkscape-font-specification:'Neutra Text, Bold';font-variant-ligatures:normal;font-variant-caps:normal;font-variant-numeric:normal;font-variant-east-asian:normal;fill:#ffffff;stroke-width:1.01153"
       id="path1701" />
    <path
       d="m 50.629609,15.667918 h -1.602265 c -1.699373,0 -2.816103,0.598826 -2.816103,2.071616 0,1.602265 1.165284,2.168723 2.427675,2.168723 0.922516,0 1.521343,-0.307506 2.039247,-1.100546 l -0.04855,0.954885 h 2.168723 v -3.916649 c 0,-2.168723 -1.343313,-3.123608 -3.107424,-3.123608 -1.61845,0 -2.346752,0.501719 -2.994132,1.132915 l 1.213837,1.29476 c 0.307506,-0.275137 0.744487,-0.631196 1.569897,-0.631196 0.728302,0 1.11673,0.356059 1.149099,1.1491 z m 0,1.29476 v 0.275136 c 0,0.582642 -0.453166,0.97107 -1.343313,0.97107 -0.615011,0 -0.938701,-0.226583 -0.938701,-0.615011 0,-0.388428 0.242767,-0.631195 0.79304,-0.631195 z"
       style="font-style:normal;font-variant:normal;font-weight:bold;font-stretch:normal;font-size:16.1845px;font-family:'Neutra Text';-inkscape-font-specification:'Neutra Text, Bold';font-variant-ligatures:normal;font-variant-caps:normal;font-variant-numeric:normal;font-variant-east-asian:normal;fill:#ffffff;stroke-width:1.01153"
       id="path1703" />
    <path
       d="m 57.433928,19.940626 c 1.003439,0 1.586081,-0.356059 1.925955,-0.631196 l -0.825409,-1.521343 c -0.145661,0.09711 -0.404613,0.291321 -0.760672,0.291321 -0.339874,0 -0.566457,-0.14566 -0.566457,-0.841594 v -2.557151 h 1.76411 v -1.812664 h -1.76411 V 9.2750403 h -2.168723 v 3.5929587 h -1.019624 v 1.812664 h 1.019624 v 2.492413 c 0,2.071616 1.003439,2.76755 2.395306,2.76755 z"
       style="font-style:normal;font-variant:normal;font-weight:bold;font-stretch:normal;font-size:16.1845px;font-family:'Neutra Text';-inkscape-font-specification:'Neutra Text, Bold';font-variant-ligatures:normal;font-variant-caps:normal;font-variant-numeric:normal;font-variant-east-asian:normal;fill:#ffffff;stroke-width:1.01153"
       id="path1705" />
    <path
       d="m 62.403327,16.978862 h 5.227594 c 0.161845,-2.41149 -1.181469,-4.256523 -3.657697,-4.256523 -2.136354,0 -3.803358,1.488974 -3.803358,3.576774 0,2.12017 1.586081,3.609144 4.046125,3.609144 1.440421,0 2.282015,-0.436982 2.945579,-1.019624 L 65.915364,17.54532 c -0.339875,0.242767 -0.938701,0.550273 -1.731742,0.550273 -0.987254,0 -1.569896,-0.404613 -1.780295,-1.116731 z m -0.03237,-1.262391 c 0.17803,-0.825409 0.760672,-1.213837 1.61845,-1.213837 0.857779,0 1.343314,0.453166 1.440421,1.213837 z"
       style="font-style:normal;font-variant:normal;font-weight:bold;font-stretch:normal;font-size:16.1845px;font-family:'Neutra Text';-inkscape-font-specification:'Neutra Text, Bold';font-variant-ligatures:normal;font-variant-caps:normal;font-variant-numeric:normal;font-variant-east-asian:normal;fill:#ffffff;stroke-width:1.01153"
       id="path1707" />
    <path
       d="m 68.925175,16.817017 h 3.722435 v -1.94214 h -3.722435 z"
       style="font-style:normal;font-variant:normal;font-weight:bold;font-stretch:normal;font-size:16.1845px;font-family:'Neutra Text';-inkscape-font-specification:'Neutra Text, Bold';font-variant-ligatures:normal;font-variant-caps:normal;font-variant-numeric:normal;font-variant-east-asian:normal;fill:#ffffff;stroke-width:1.01153"
       id="path1709" />
    <path
       d="m 75.281385,11.7189 c 0.744487,0 1.375682,-0.566458 1.375682,-1.375683 0,-0.7930402 -0.631195,-1.3594977 -1.375682,-1.3594977 -0.744487,0 -1.391867,0.5664575 -1.391867,1.3594977 0,0.809225 0.64738,1.375683 1.391867,1.375683 z m -1.100546,8.043696 h 2.184907 v -6.894597 h -2.184907 z"
       style="font-style:normal;font-variant:normal;font-weight:bold;font-stretch:normal;font-size:16.1845px;font-family:'Neutra Text';-inkscape-font-specification:'Neutra Text, Bold';font-variant-ligatures:normal;font-variant-caps:normal;font-variant-numeric:normal;font-variant-east-asian:normal;fill:#ffffff;stroke-width:1.01153"
       id="path1711" />
    <path
       d="m 81.738242,19.908257 c 2.136354,0 3.787173,-1.488974 3.787173,-3.576775 0,-2.103985 -1.650819,-3.609143 -3.787173,-3.609143 -2.136354,0 -3.803357,1.505158 -3.803357,3.609143 0,2.087801 1.667003,3.576775 3.803357,3.576775 z m 0,-1.845033 c -0.97107,0 -1.569896,-0.712118 -1.569896,-1.731742 0,-1.035808 0.598826,-1.731741 1.569896,-1.731741 0.97107,0 1.553712,0.695933 1.553712,1.731741 0,1.019624 -0.582642,1.731742 -1.553712,1.731742 z"
       style="font-style:normal;font-variant:normal;font-weight:bold;font-stretch:normal;font-size:16.1845px;font-family:'Neutra Text';-inkscape-font-specification:'Neutra Text, Bold';font-variant-ligatures:normal;font-variant-caps:normal;font-variant-numeric:normal;font-variant-east-asian:normal;fill:#ffffff;stroke-width:1.01153"
       id="path1713" />
  </g>
  <g
     id="g1660"
     transform="matrix(0.02364797,0,0,0.02359403,14.904297,7)"
     style="fill:#ffffff">
    <g
       id="g1601"
       style="fill:#ffffff">
	<g
   id="g1599"
   style="fill:#ffffff">
		<g
   id="g1597"
   style="fill:#ffffff">
			<path
   d="M 537.423,52.563 H 477.587 V 21.92 c 0,-11.83 -9.591,-21.42 -21.42,-21.42 -11.83,0 -21.42,9.59 -21.42,21.42 V 52.562 H 165.364 V 21.92 c 0,-11.83 -9.59,-21.42 -21.42,-21.42 -11.83,0 -21.42,9.59 -21.42,21.42 V 52.562 H 62.687 c -32.058,0 -58.14,26.082 -58.14,58.14 v 430.77 c 0,32.059 26.082,58.139 58.14,58.139 h 474.736 c 32.059,0 58.141,-26.08 58.141,-58.139 v -430.77 c 0,-32.057 -26.082,-58.139 -58.141,-58.139 z m -490.036,58.14 c 0,-8.451 6.85,-15.3 15.3,-15.3 h 59.837 v 24.443 c 0,11.83 9.59,21.42 21.42,21.42 11.83,0 21.42,-9.59 21.42,-21.42 V 95.403 h 269.383 v 24.443 c 0,11.83 9.59,21.42 21.42,21.42 11.829,0 21.42,-9.59 21.42,-21.42 V 95.403 h 59.836 c 8.45,0 15.3,6.85 15.3,15.3 v 53.856 H 47.387 Z m 505.336,430.77 c 0,8.449 -6.85,15.301 -15.3,15.301 H 62.687 c -8.45,0 -15.3,-6.852 -15.3,-15.301 V 207.399 h 505.336 z"
   id="path1593"
   style="fill:#ffffff" />

			<path
   d="M 537.423,600.111 H 62.687 c -32.334,0 -58.64,-26.306 -58.64,-58.639 v -430.77 c 0,-32.334 26.306,-58.64 58.64,-58.64 h 59.336 V 21.92 c 0,-12.087 9.833,-21.92 21.92,-21.92 12.086,0 21.92,9.833 21.92,21.92 V 52.062 H 434.247 V 21.92 C 434.247,9.833 444.08,0 456.167,0 c 12.087,0 21.92,9.833 21.92,21.92 v 30.143 h 59.336 c 32.335,0 58.641,26.306 58.641,58.64 v 430.77 c 0,32.333 -26.306,58.638 -58.641,58.638 z M 62.687,53.062 c -31.783,0 -57.64,25.857 -57.64,57.64 v 430.77 c 0,31.782 25.857,57.639 57.64,57.639 h 474.736 c 31.783,0 57.641,-25.856 57.641,-57.639 v -430.77 c 0,-31.783 -25.857,-57.64 -57.641,-57.64 H 477.087 V 21.92 C 477.087,10.384 467.702,1 456.167,1 c -11.535,0 -20.92,9.385 -20.92,20.92 V 53.062 H 164.864 V 21.92 C 164.864,10.384 155.479,1 143.944,1 c -11.536,0 -20.92,9.385 -20.92,20.92 V 53.062 Z M 537.423,557.273 H 62.687 c -8.712,0 -15.8,-7.088 -15.8,-15.801 V 206.899 h 506.336 v 334.574 c 0,8.713 -7.088,15.8 -15.8,15.8 z M 47.887,207.899 v 333.574 c 0,8.161 6.639,14.801 14.8,14.801 h 474.736 c 8.16,0 14.8,-6.64 14.8,-14.801 V 207.899 Z m 505.336,-42.84 H 46.887 v -54.356 c 0,-8.712 7.088,-15.8 15.8,-15.8 h 60.337 v 24.943 c 0,11.535 9.385,20.92 20.92,20.92 11.535,0 20.92,-9.385 20.92,-20.92 V 94.903 h 270.383 v 24.943 c 0,11.535 9.385,20.92 20.92,20.92 11.535,0 20.92,-9.385 20.92,-20.92 V 94.903 h 60.336 c 8.712,0 15.8,7.088 15.8,15.8 z m -505.336,-1 h 504.336 v -53.356 c 0,-8.161 -6.64,-14.8 -14.8,-14.8 h -59.336 v 23.943 c 0,12.087 -9.833,21.92 -21.92,21.92 -12.087,0 -21.92,-9.833 -21.92,-21.92 V 95.903 H 165.864 v 23.943 c 0,12.087 -9.833,21.92 -21.92,21.92 -12.087,0 -21.92,-9.833 -21.92,-21.92 V 95.903 H 62.687 c -8.161,0 -14.8,6.639 -14.8,14.8 z"
   id="path1595"
   style="fill:#ffffff" />

		</g>

	</g>

</g>
    <g
       id="g1603"
       style="fill:#ffffff">
</g>
    <g
       id="g1605"
       style="fill:#ffffff">
</g>
    <g
       id="g1607"
       style="fill:#ffffff">
</g>
    <g
       id="g1609"
       style="fill:#ffffff">
</g>
    <g
       id="g1611"
       style="fill:#ffffff">
</g>
    <g
       id="g1613"
       style="fill:#ffffff">
</g>
    <g
       id="g1615"
       style="fill:#ffffff">
</g>
    <g
       id="g1617"
       style="fill:#ffffff">
</g>
    <g
       id="g1619"
       style="fill:#ffffff">
</g>
    <g
       id="g1621"
       style="fill:#ffffff">
</g>
    <g
       id="g1623"
       style="fill:#ffffff">
</g>
    <g
       id="g1625"
       style="fill:#ffffff">
</g>
    <g
       id="g1627"
       style="fill:#ffffff">
</g>
    <g
       id="g1629"
       style="fill:#ffffff">
</g>
    <g
       id="g1631"
       style="fill:#ffffff">
</g>
  </g>
  <g
     aria-label="io"
     id="text1664"
     style="font-style:normal;font-variant:normal;font-weight:normal;font-stretch:normal;font-size:8.6438px;line-height:1.25;font-family:Roboto;-inkscape-font-specification:'Roboto, Normal';font-variant-ligatures:normal;font-variant-caps:normal;font-variant-numeric:normal;font-variant-east-asian:normal;letter-spacing:0px;fill:#ffffff;stroke-width:0.648287">
    <path
       d="m 19.92231,14.211585 c 0.397614,0 0.734723,-0.302533 0.734723,-0.734723 0,-0.423547 -0.337109,-0.72608 -0.734723,-0.72608 -0.397615,0 -0.743367,0.302533 -0.743367,0.72608 0,0.43219 0.345752,0.734723 0.743367,0.734723 z m -0.587779,4.295968 h 1.166913 v -3.682259 h -1.166913 z"
       style="font-style:normal;font-variant:normal;font-weight:normal;font-stretch:normal;font-size:8.6438px;font-family:'Neutra Text';-inkscape-font-specification:'Neutra Text, Normal';font-variant-ligatures:normal;font-variant-caps:normal;font-variant-numeric:normal;font-variant-east-asian:normal;fill:#ffffff;stroke-width:0.648287"
       id="path1716" />
    <path
       d="m 23.370781,18.585347 c 1.140981,0 2.022649,-0.795229 2.022649,-1.910279 0,-1.123694 -0.881668,-1.927568 -2.022649,-1.927568 -1.140982,0 -2.031293,0.803874 -2.031293,1.927568 0,1.11505 0.890311,1.910279 2.031293,1.910279 z m 0,-0.985393 c -0.518628,0 -0.838449,-0.380327 -0.838449,-0.924886 0,-0.553204 0.319821,-0.924887 0.838449,-0.924887 0.518628,0 0.829804,0.371683 0.829804,0.924887 0,0.544559 -0.311176,0.924886 -0.829804,0.924886 z"
       style="font-style:normal;font-variant:normal;font-weight:normal;font-stretch:normal;font-size:8.6438px;font-family:'Neutra Text';-inkscape-font-specification:'Neutra Text, Normal';font-variant-ligatures:normal;font-variant-caps:normal;font-variant-numeric:normal;font-variant-east-asian:normal;fill:#ffffff;stroke-width:0.648287"
       id="path1718" />
  </g>
</svg>
